<svg width="44" height="46" viewBox="0 0 44 46" fill="none" xmlns="http://www.w3.org/2000/svg">
<g clip-path="url(#clip0_2_7318)">
<path d="M10.5 22V19C10.5 17.0109 11.2902 15.1032 12.6967 13.6967C14.1032 12.2902 16.0109 11.5 18 11.5C19.9891 11.5 21.8968 12.2902 23.3033 13.6967C24.7098 15.1032 25.5 17.0109 25.5 19V22H30C30.3978 22 30.7794 22.158 31.0607 22.4393C31.342 22.7206 31.5 23.1022 31.5 23.5V41.5C31.5 41.8978 31.342 42.2794 31.0607 42.5607C30.7794 42.842 30.3978 43 30 43H6C5.60218 43 5.22064 42.842 4.93934 42.5607C4.65804 42.2794 4.5 41.8978 4.5 41.5V23.5C4.5 23.1022 4.65804 22.7206 4.93934 22.4393C5.22064 22.158 5.60218 22 6 22H10.5ZM10.5 25H7.5V40H28.5V25H25.5V28H22.5V25H13.5V28H10.5V25ZM13.5 22H22.5V19C22.5 17.8065 22.0259 16.6619 21.182 15.818C20.3381 14.9741 19.1935 14.5 18 14.5C16.8065 14.5 15.6619 14.9741 14.818 15.818C13.9741 16.6619 13.5 17.8065 13.5 19V22Z" fill="#131212"/>
</g>
<circle cx="32" cy="12" r="12" fill="#FF0000"/>
<path d="M27.5352 9.08789H29.6621C29.6621 7.76953 30.541 6.86426 31.9209 6.86426C33.248 6.86426 34.0391 7.73438 34.0391 8.86816C34.0391 9.81738 33.6523 10.4238 32.0527 12.0234L27.6582 16.4268V18H36.4648V16.0752H30.7344V15.9258L33.459 13.2715C35.6387 11.1621 36.2803 10.125 36.2803 8.64844C36.2803 6.53906 34.5664 5.00098 32.0439 5.00098C29.3984 5.00098 27.5352 6.67969 27.5352 9.08789Z" fill="white"/>
<defs>
<clipPath id="clip0_2_7318">
<rect width="36" height="36" fill="white" transform="translate(0 10)"/>
</clipPath>
</defs>
</svg>
